<?xml version="1.0" encoding="UTF-8"?>
<svg version="1.1" xmlns="http://www.w3.org/2000/svg" width="400" height="400">
<path d="M0 0 C132 0 264 0 400 0 C400 132 400 264 400 400 C268 400 136 400 0 400 C0 268 0 136 0 0 Z " fill="#111A22" transform="translate(0,0)"/>
<path d="M0 0 C6.69875887 0.42667339 9.79559067 2.57351103 14.3737793 7.3122406 C15.37683105 8.3011454 15.37683105 8.3011454 16.40014648 9.31002808 C17.87698837 10.76866224 19.34553599 12.23572884 20.80688477 13.70988464 C23.31428247 16.22583672 25.85657948 18.70180118 28.40893555 21.17210388 C33.0815571 25.69973349 37.71717877 30.26293285 42.33764648 34.84373474 C44.25750876 36.74548511 46.18565923 38.63825037 48.12084961 40.5243988 C50.95113609 43.28319353 53.75692809 46.06613706 56.5612793 48.8513031 C57.86403809 50.1123159 57.86403809 50.1123159 59.19311523 51.39880371 C59.98234375 52.19080673 60.77157227 52.98280975 61.5847168 53.79881287 C62.28258301 54.48637161 62.98044922 55.17393036 63.69946289 55.88232422 C65.64387663 58.77912953 65.53231235 60.67625819 65.1862793 64.09739685 C64.18139648 65.93870544 64.18139648 65.93870544 62.1862793 67.09739685 C59.46979119 67.44455788 56.98634557 67.61295842 54.2644043 67.63645935 C53.48619324 67.64881622 52.70798218 67.6611731 51.90618896 67.67390442 C50.25874342 67.69346925 48.61118098 67.70470254 46.96362305 67.70823669 C44.45769623 67.72227686 41.95682191 67.78953456 39.4519043 67.8591156 C27.81923291 68.01995881 27.81923291 68.01995881 23.66088867 65.67063904 C21.90198424 63.91459307 20.55877341 62.16337893 19.1862793 60.09739685 C18.33678711 59.24790466 17.48729492 58.39841248 16.61206055 57.5231781 C12.13680013 53.04791768 7.66153971 48.57265727 3.1862793 44.09739685 C0.32848913 45.39459609 -1.72380607 46.76107945 -3.92993164 48.98655701 C-4.51023132 49.56700775 -5.09053101 50.1474585 -5.68841553 50.74549866 C-6.30210999 51.36951569 -6.91580444 51.99353271 -7.5480957 52.63645935 C-8.18612122 53.27731476 -8.82414673 53.91817017 -9.48150635 54.57844543 C-11.51366139 56.62177506 -13.53874288 58.67195667 -15.5637207 60.72239685 C-16.94216601 62.11087545 -18.32106707 63.49890175 -19.70043945 64.88645935 C-23.07683964 68.28488382 -26.44691358 71.68946939 -29.8137207 75.09739685 C-28.02023077 78.97443177 -25.53229658 81.6428023 -22.5012207 84.59739685 C-21.790625 85.30702576 -21.790625 85.30702576 -21.06567383 86.0309906 C-18.12777046 88.93272279 -15.05992377 91.55037598 -11.8137207 94.09739685 C-10.12374747 95.74042638 -8.46155676 97.41210997 -6.8137207 99.09739685 C-5.21090605 100.70291439 -3.60664308 102.30698687 -2.0012207 103.90989685 C-0.60538737 105.30573018 0.79044596 106.70156352 2.1862793 108.09739685 C6.58827205 104.6348898 10.07959477 101.09663682 13.55737305 96.69895935 C27.25054453 80.14158838 27.25054453 80.14158838 37.44749451 78.73600769 C41.10424014 78.43307991 44.70830091 78.40217584 48.3737793 78.53489685 C49.08799042 78.56053711 49.80220154 78.58617737 50.53805542 78.6125946 C61.97968153 79.16550198 61.97968153 79.16550198 64.83694649 81.37226105 C66.97297618 84.10319687 66.73979714 86.44243441 66.61458969 89.80673218 C65.90304883 93.61215354 63.60416332 95.87186262 60.89379883 98.42747498 C60.33130432 98.99289001 59.76880981 99.55830505 59.18927002 100.14085388 C57.33656511 101.99239315 55.45401607 103.80996728 53.5690918 105.62864685 C52.27162139 106.91185692 50.97606389 108.19700379 49.68234253 109.48399353 C46.28001054 112.85770902 42.85109298 116.20311092 39.41625977 119.54368591 C35.91959808 122.95518187 32.45132216 126.3952897 28.97924805 129.83177185 C23.91200251 134.83562197 18.83857994 139.83304941 13.73754883 144.80247498 C13.20239655 145.32708313 12.66724426 145.85169128 12.11587524 146.39219666 C8.71605384 149.69239266 7.24598684 150.9860347 2.45288086 151.48973083 C-2.36682028 151.39926163 -4.84314146 149.1766123 -8.0793457 145.8200531 C-8.69529602 145.21435989 -9.31124634 144.60866669 -9.94586182 143.98461914 C-11.39655612 142.55218743 -12.83765014 141.10999841 -14.27148438 139.66069031 C-17.17042684 136.73773615 -20.10070948 133.8481554 -23.03442383 130.96018982 C-28.99885754 125.08019355 -34.92979937 119.16730199 -40.85180664 113.24461365 C-43.97015777 110.1261596 -47.09541667 107.01472389 -50.222332 103.9048605 C-52.65012253 101.48818082 -55.07336235 99.06697768 -57.49533844 96.64447212 C-58.64673621 95.49424923 -59.79974391 94.34563546 -60.95442963 93.1987133 C-62.55913421 91.60382102 -64.15736287 90.00270052 -65.75415039 88.39988708 C-66.66154968 87.49391281 -67.56894897 86.58793854 -68.50384521 85.6545105 C-71.64863002 82.17312279 -73.69968002 79.60866485 -74.05688477 74.87498474 C-72.15844376 69.10621458 -68.23942628 65.804272 -63.9230957 61.6559906 C-63.02633118 60.77008743 -62.12956665 59.88418427 -61.20562744 58.97143555 C-58.82420705 56.62336704 -56.43097959 54.28886832 -54.03045654 51.96043396 C-50.6601927 48.68483651 -47.31422869 45.3843769 -43.96466064 42.08764648 C-42.18281622 40.3367561 -40.39666067 38.59023925 -38.60565186 36.84872437 C-34.41664049 32.75936656 -30.47985162 28.66014305 -26.8137207 24.09739685 C-25.57487305 22.95745919 -24.30638534 21.84826257 -23.0012207 20.78489685 C-20.00233038 18.2361214 -17.38704457 15.57517241 -14.8137207 12.59739685 C-11.13200491 8.33972948 -7.1209829 4.7064744 -2.8137207 1.09739685 C-1.8137207 0.09739685 -1.8137207 0.09739685 0 0 Z " fill="#F6F4EE" transform="translate(197.813720703125,75.90260314941406)"/>
<path d="M0 0 C3.03400267 1.4288299 4.91933453 3.16093924 7.28553772 5.54399109 C7.74468567 6.00094864 8.20383362 6.45790619 8.67689514 6.92871094 C10.18540223 8.43491456 11.6791649 9.95487599 13.17298889 11.47563171 C14.2187911 12.52635854 15.26540861 13.57627446 16.31280518 14.62541199 C18.50172189 16.82195895 20.68402145 19.02479556 22.86122131 21.23295593 C25.65833281 24.06976376 28.46621988 26.8955836 31.27840137 29.71744537 C33.9551545 32.40414587 36.62690432 35.0957973 39.29798889 37.78813171 C39.8108375 38.30437607 40.3236861 38.82062042 40.85207558 39.35250854 C42.29358677 40.80553715 43.73107674 42.26255184 45.16835022 43.71977234 C45.98821915 44.54948547 46.80808807 45.37919861 47.65280151 46.23405457 C49.40345764 48.13188171 49.40345764 48.13188171 49.40345764 49.13188171 C45.73763157 49.3370922 42.07329824 49.46013373 38.40345764 49.56938171 C37.3734967 49.62803406 36.34353577 49.6866864 35.28236389 49.74711609 C29.68296029 49.87194356 26.20534198 49.59361357 21.87220764 45.85453796 C20.67865758 44.64948654 19.52099783 43.40774009 18.40345764 42.13188171 C17.78946106 41.43651306 17.17546448 40.74114441 16.54286194 40.02470398 C15.42239182 38.73103238 14.30984659 37.43046544 13.20423889 36.12406921 C10.70632634 33.36065186 7.9448711 30.97826243 5.10267639 28.57719421 C3.40345764 27.13188171 3.40345764 27.13188171 1.40345764 25.13188171 C-1.77111579 25.4761999 -3.51205222 26.64367022 -5.80357361 28.79203796 C-6.38663269 29.33449158 -6.96969177 29.87694519 -7.57041931 30.43583679 C-8.17716492 31.01615662 -8.78391052 31.59647644 -9.40904236 32.19438171 C-10.35106506 33.081297 -10.35106506 33.081297 -11.31211853 33.98612976 C-15.09561763 37.58470806 -18.61816157 41.29261815 -21.95982361 45.30766296 C-24.5309231 48.17330369 -27.47368312 50.59313509 -30.38169861 53.10844421 C-33.2248261 55.70586933 -35.70760257 58.52609501 -38.18638611 61.46781921 C-39.59654236 63.13188171 -39.59654236 63.13188171 -41.59654236 65.13188171 C-42.03060145 68.17811252 -41.95458859 69.6142019 -40.18756104 72.16905212 C-39.52757614 72.82999878 -38.86759125 73.49094543 -38.18760681 74.17192078 C-37.07063164 75.30769562 -37.07063164 75.30769562 -35.93109131 76.46641541 C-35.11557297 77.26867554 -34.30005463 78.07093567 -33.45982361 78.89750671 C-32.2124366 80.14851166 -32.2124366 80.14851166 -30.93984985 81.42478943 C-29.17789617 83.1857634 -27.40971344 84.94052348 -25.635849 86.6894989 C-22.92130491 89.36977397 -20.23151503 92.07316279 -17.54380798 94.78031921 C-15.82974298 96.48748515 -14.11429316 98.19326204 -12.39732361 99.89750671 C-11.59192642 100.70786377 -10.78652924 101.51822083 -9.95672607 102.35313416 C-9.19631516 103.09770874 -8.43590424 103.84228333 -7.65245056 104.60942078 C-6.65650627 105.5960672 -6.65650627 105.5960672 -5.64044189 106.60264587 C-3.219243 108.41417529 -1.6119758 108.97461541 1.40345764 109.13188171 C3.85173515 107.20797394 5.82718053 105.3834718 7.94642639 103.13969421 C8.55609756 102.51916168 9.16576874 101.89862915 9.79391479 101.2592926 C11.74085028 99.27212712 13.666157 97.26547373 15.59095764 95.25688171 C17.53061629 93.25987079 19.47443399 91.26701666 21.4201355 89.27589417 C22.62993033 88.03490751 23.83537933 86.78966682 25.03607178 85.53987122 C30.20119868 80.19024989 30.20119868 80.19024989 33.74183655 80.01835632 C35.17148743 80.02621155 35.17148743 80.02621155 36.63002014 80.03422546 C38.17689514 80.03905945 38.17689514 80.03905945 39.75502014 80.04399109 C40.83525452 80.05237 41.91548889 80.0607489 43.02845764 80.06938171 C44.66041077 80.07614929 44.66041077 80.07614929 46.32533264 80.08305359 C49.01809553 80.09486395 51.71074953 80.11133393 54.40345764 80.13188171 C49.16101544 86.46105109 43.45485986 92.29698368 37.67689514 98.13188171 C37.16885975 98.64524078 36.66082436 99.15859985 36.13739395 99.68751526 C33.45809993 102.39333139 30.77528473 105.09560462 28.08998108 107.79545593 C25.87166134 110.0272106 23.66087604 112.26605153 21.45619202 114.51127625 C18.78242731 117.2341774 16.0967628 119.94476729 13.4018898 122.64677429 C12.37934947 123.67604031 11.36107919 124.70956667 10.34719467 125.74736023 C8.93547743 127.19050644 7.50652541 128.61673286 6.07679749 130.04203796 C5.26882721 130.85809509 4.46085693 131.67415222 3.62840271 132.51493835 C1.40345764 134.13188171 1.40345764 134.13188171 -0.55088902 133.89300251 C-4.06791849 132.58443071 -6.43194258 129.72921636 -9.03330994 127.11503601 C-9.66948242 126.48733307 -10.30565491 125.85963013 -10.96110535 125.21290588 C-13.06232198 123.13509575 -15.15214423 121.04625845 -17.24107361 118.95610046 C-18.69477277 117.50949904 -20.14877157 116.06319867 -21.60305786 114.6171875 C-24.64866792 111.58502955 -27.68826564 108.5469892 -30.72422791 105.50517273 C-34.62282932 101.60066527 -38.5393923 97.71473942 -42.4610796 93.83343792 C-45.46789714 90.85241474 -48.4632258 87.86005378 -51.45534325 84.86428261 C-52.89516123 83.42616264 -54.33898718 81.99204415 -55.78679848 80.56197166 C-57.80553024 78.56527185 -59.80787393 76.55346315 -61.80674744 74.53691101 C-62.41185654 73.94506516 -63.01696564 73.3532193 -63.64041138 72.74343872 C-65.27606201 71.07382202 -65.27606201 71.07382202 -67.59654236 68.13188171 C-67.13962558 63.50605144 -63.82102048 60.91331087 -60.68736267 57.78691101 C-60.07101959 57.1604921 -59.45467651 56.53407318 -58.81965637 55.88867188 C-56.77927 53.81978008 -54.72774031 51.7623984 -52.67466736 49.70610046 C-51.25295366 48.27474966 -49.83146825 46.84317208 -48.41020203 45.41137695 C-45.42948011 42.41268868 -42.442617 39.42027166 -39.45201111 36.43144226 C-35.61532367 32.59506017 -31.79970822 28.7384359 -27.98907852 24.87619305 C-25.06025296 21.91406796 -22.11795045 18.96562201 -19.17163849 16.02089882 C-17.75857412 14.60428694 -16.35038893 13.18279105 -14.94716644 11.75642967 C-12.98644281 9.76641623 -11.00774748 7.79619687 -9.02330017 5.82987976 C-8.44440033 5.2341214 -7.86550049 4.63836304 -7.26905823 4.02455139 C-3.32191743 0.16872444 -3.32191743 0.16872444 0 0 Z " fill="#131B23" transform="translate(200.59654235839844,84.86811828613281)"/>
<path d="M0 0 C11 0 11 0 13.2890625 1.84375 C13.72992188 2.7203125 14.17078125 3.596875 14.625 4.5 C15.15480469 5.48613281 15.68460938 6.47226563 16.23046875 7.48828125 C17.10638672 9.22658203 17.10638672 9.22658203 18 11 C19.21304274 13.17474343 20.44984328 15.33500045 21.68701172 17.49609375 C23.48600601 20.64872412 25.24264228 23.8240043 27 27 C31.47830571 19.85062363 35.81436186 12.69586621 39.7734375 5.2421875 C41 3 41 3 43 0 C46.63 0 50.26 0 54 0 C54 16.5 54 33 54 50 C50.7 50 47.4 50 44 50 C43.67 40.43 43.34 30.86 43 21 C39.46647328 27.16084056 39.46647328 27.16084056 35.93994141 33.32568359 C35.49827637 34.09219238 35.05661133 34.85870117 34.6015625 35.6484375 C34.15119629 36.43395996 33.70083008 37.21948242 33.23681641 38.02880859 C32 40 32 40 30 42 C27.12890625 42.5 27.12890625 42.5 24 42 C21.83984375 39.4375 21.83984375 39.4375 19.9375 36 C19.30714844 34.88625 18.67679688 33.7725 18.02734375 32.625 C17.35832031 31.42875 16.68929687 30.2325 16 29 C13.525 25.04 13.525 25.04 11 21 C10.67 30.57 10.34 40.14 10 50 C6.7 50 3.4 50 0 50 C0 33.5 0 17 0 0 Z " fill="#F9F6F1" transform="translate(214,247)"/>
<path d="M0 0 C2.55843574 1.81693133 4.36686765 3.791217 6.03515625 6.4453125 C4.90016231 9.73679493 4.04232249 10.4412994 0.91015625 12.1953125 C-0.03859375 12.6078125 -0.98734375 13.0203125 -1.96484375 13.4453125 C-2.52171875 12.6615625 -3.07859375 11.8778125 -3.65234375 11.0703125 C-7.02149808 7.24586705 -9.44977396 6.58058659 -14.46484375 6.1328125 C-19.56962273 6.58859634 -21.75587168 8.20366551 -25.27734375 11.8203125 C-28.26482813 18.23787154 -27.95359481 25.31426746 -25.83984375 32.0078125 C-23.04104913 35.64624551 -20.42047325 38.05986096 -15.75 38.79296875 C-11.09444799 38.97113463 -7.53184922 38.69758219 -3.96484375 35.4453125 C-2.70254051 33.14556975 -1.85600482 30.93118284 -0.96484375 28.4453125 C-4.92484375 28.4453125 -8.88484375 28.4453125 -12.96484375 28.4453125 C-12.96484375 25.4753125 -12.96484375 22.5053125 -12.96484375 19.4453125 C-6.03484375 19.4453125 0.89515625 19.4453125 8.03515625 19.4453125 C7.09573155 38.98534619 7.09573155 38.98534619 1.22265625 44.3203125 C-6.02985171 49.1553178 -13.48760126 49.21156211 -21.96484375 48.4453125 C-28.18646618 46.80649397 -32.5514901 42.80459674 -35.96484375 37.4453125 C-39.70591243 30.10434754 -40.31518814 21.60711283 -38.23828125 13.66796875 C-35.70460572 6.81880523 -32.59601409 1.56167824 -25.96484375 -1.9296875 C-17.13343091 -5.41229123 -8.18269198 -4.65681657 0 0 Z " fill="#F9F7F1" transform="translate(97.96484375,249.5546875)"/>
<path d="M0 0 C3.3 0 6.6 0 10 0 C10.00410889 1.03406982 10.00821777 2.06813965 10.01245117 3.13354492 C10.03427867 6.98251698 10.08860426 10.83047198 10.15258789 14.67895508 C10.17573666 16.34226712 10.19015631 18.0057251 10.19555664 19.66918945 C10.2048698 22.06553751 10.24590551 24.45960059 10.29296875 26.85546875 C10.2890361 27.5952446 10.28510345 28.33502045 10.28105164 29.09721375 C10.39239215 33.0669125 10.87140792 34.83942783 13.38354492 37.97631836 C16.31247468 40.24168169 17.49049039 40.58617946 21.125 40.375 C21.97320312 40.34148437 22.82140625 40.30796875 23.6953125 40.2734375 C26.15641665 40.06022422 26.15641665 40.06022422 29 39 C30.24473532 35.26579403 30.23209785 31.72634762 30.31640625 27.83203125 C30.33718735 27.03721848 30.35796844 26.2424057 30.37937927 25.42350769 C30.44472087 22.88659237 30.50368808 20.34957427 30.5625 17.8125 C30.60569986 16.09178628 30.64931463 14.37108292 30.69335938 12.65039062 C30.80038648 8.43369887 30.90169724 4.2169038 31 0 C34.3 0 37.6 0 41 0 C41.09916726 5.44428237 41.17160909 10.88803448 41.21972656 16.33300781 C41.23979339 18.18368696 41.26705345 20.03430309 41.30175781 21.88476562 C41.35049433 24.55093977 41.37301787 27.21627287 41.390625 29.8828125 C41.41127014 30.70492218 41.43191528 31.52703186 41.45318604 32.37405396 C41.45526581 37.74590114 40.54033962 40.72283431 37 45 C30.8533344 50.67384517 25.39347826 51.45485257 17.234375 51.31640625 C11.39023048 50.74469646 7.6811845 48.7254262 3.625 44.5625 C0.22001614 39.19310238 -0.27805992 34.69882107 -0.1953125 28.41796875 C-0.1924826 27.60378983 -0.18965271 26.7896109 -0.18673706 25.95075989 C-0.17558584 23.362854 -0.15049083 20.77530042 -0.125 18.1875 C-0.11496365 16.42773939 -0.10583894 14.66797333 -0.09765625 12.90820312 C-0.0756631 8.60533402 -0.04116836 4.30272664 0 0 Z " fill="#F9F6F0" transform="translate(159,247)"/>
<path d="M0 0 C10.89 0 21.78 0 33 0 C33 3.3 33 6.6 33 10 C25.41 10 17.82 10 10 10 C10 13.3 10 16.6 10 20 C16.27 20 22.54 20 29 20 C29 22.97 29 25.94 29 29 C22.73 29 16.46 29 10 29 C10 32.96 10 36.92 10 41 C17.59 41 25.18 41 33 41 C33 43.97 33 46.94 33 50 C22.11 50 11.22 50 0 50 C0 33.5 0 17 0 0 Z " fill="#FCF9F4" transform="translate(308,247)"/>
<path d="M0 0 C3.3 0 6.6 0 10 0 C10 13.53 10 27.06 10 41 C17.26 41 24.52 41 32 41 C32 43.97 32 46.94 32 50 C21.44 50 10.88 50 0 50 C0 33.5 0 17 0 0 Z " fill="#FDFAF4" transform="translate(119,247)"/>
<path d="M0 0 C2.97 0 5.94 0 9 0 C9 16.5 9 33 9 50 C6.03 50 3.06 50 0 50 C0 33.5 0 17 0 0 Z " fill="#FEFBF5" transform="translate(284,247)"/>
<path d="M0 0 C2.64 0 5.28 0 8 0 C8 2.64 8 5.28 8 8 C5.36 8 2.72 8 0 8 C0 5.36 0 2.72 0 0 Z " fill="#E3E1DD" transform="translate(202,157)"/>
<path d="M0 0 C2.64 0 5.28 0 8 0 C8 2.64 8 5.28 8 8 C5.36 8 2.72 8 0 8 C0 5.36 0 2.72 0 0 Z " fill="#E3E1DC" transform="translate(191,157)"/>
<path d="M0 0 C2.64 0 5.28 0 8 0 C8 2.31 8 4.62 8 7 C5.36 7 2.72 7 0 7 C0 4.69 0 2.38 0 0 Z " fill="#F3F0EB" transform="translate(202,146)"/>
<path d="M0 0 C2.64 0 5.28 0 8 0 C8 2.31 8 4.62 8 7 C5.36 7 2.72 7 0 7 C0 4.69 0 2.38 0 0 Z " fill="#F2F0EB" transform="translate(191,146)"/>
</svg>
